<svg xmlns="http://www.w3.org/2000/svg" width="900" height="620" viewBox="0 0 900 620" role="img" aria-label="Placement coordination workflow illustration">
  <defs>
    <linearGradient id="bg" x1="0" y1="0" x2="1" y2="1"><stop offset="0" stop-color="#fff3df"/><stop offset="1" stop-color="#dbe8e5"/></linearGradient>
  </defs>
  <rect width="900" height="620" rx="54" fill="url(#bg)"/>
  <rect x="98" y="118" width="704" height="376" rx="38" fill="#fffaf2" stroke="#2f261d" stroke-opacity=".13"/>
  <rect x="142" y="168" width="166" height="110" rx="24" fill="#ffdb79"/>
  <rect x="367" y="168" width="166" height="110" rx="24" fill="#a9c7a6"/>
  <rect x="592" y="168" width="166" height="110" rx="24" fill="#ffad96"/>
  <rect x="142" y="340" width="616" height="70" rx="24" fill="#242018"/>
  <path d="M225 278v62M450 278v62M675 278v62" stroke="#2f261d" stroke-width="12" stroke-linecap="round" opacity=".15"/>
  <path d="M184 224h78M408 224h84M632 224h82" stroke="#171511" stroke-width="14" stroke-linecap="round" opacity=".78"/>
  <path d="M190 375h160M408 375h130M596 375h112" stroke="#fff5e7" stroke-width="13" stroke-linecap="round" opacity=".82"/>
  <circle cx="160" cy="430" r="17" fill="#ff8b68"/>
  <circle cx="450" cy="430" r="17" fill="#e7b84d"/>
  <circle cx="740" cy="430" r="17" fill="#6b8f71"/>
  <text x="100" y="84" fill="#231f18" font-size="32" font-family="Arial, sans-serif" font-weight="700">placement coordination</text>
</svg>
