<svg xmlns="http://www.w3.org/2000/svg" viewBox="0 0 960 540" role="img" aria-label="EM simulation for subsurface imaging placeholder">
  <defs>
    <linearGradient id="bg" x1="0" x2="1" y1="0" y2="1">
      <stop offset="0" stop-color="#e3effb"/>
      <stop offset="1" stop-color="#fff3d6"/>
    </linearGradient>
  </defs>
  <rect width="960" height="540" rx="36" fill="url(#bg)"/>
  <g transform="translate(84 68)">
    <rect width="792" height="352" rx="34" fill="#fffaf2" stroke="#1f1b16" stroke-width="5"/>
    <path d="M60 110c60-36 126-36 198 0s138 36 198 0 126-36 198 0" fill="none" stroke="#1f1b16" stroke-width="5" opacity=".72"/>
    <path d="M60 172c60-36 126-36 198 0s138 36 198 0 126-36 198 0" fill="none" stroke="#f9735b" stroke-width="5" opacity=".8"/>
    <path d="M60 234c60-36 126-36 198 0s138 36 198 0 126-36 198 0" fill="none" stroke="#7fb069" stroke-width="5" opacity=".8"/>
    <path d="M60 296c60-36 126-36 198 0s138 36 198 0 126-36 198 0" fill="none" stroke="#4f8cc9" stroke-width="5" opacity=".8"/>
    <g stroke="#1f1b16" stroke-width="4">
      <circle cx="188" cy="84" r="26" fill="#f5c542"/>
      <circle cx="604" cy="266" r="36" fill="#8b5cf6"/>
      <rect x="330" y="216" width="84" height="54" rx="18" fill="#ffe2d8"/>
    </g>
    <path d="M188 84c80 80 162 128 226 132 84 4 110 44 190 50" fill="none" stroke="#1f1b16" stroke-width="4" stroke-dasharray="10 12"/>
  </g>
</svg>
