<svg xmlns="http://www.w3.org/2000/svg" viewBox="0 0 960 540" role="img" aria-label="Metamaterial project placeholder">
  <defs>
    <pattern id="grid" width="58" height="58" patternUnits="userSpaceOnUse">
      <path d="M58 0H0v58" fill="none" stroke="#32261f" stroke-opacity=".12" stroke-width="2"/>
    </pattern>
    <linearGradient id="bg" x1="0" x2="1" y1="0" y2="1">
      <stop offset="0" stop-color="#fff3d6"/>
      <stop offset="1" stop-color="#ffe2d8"/>
    </linearGradient>
  </defs>
  <rect width="960" height="540" rx="36" fill="url(#bg)"/>
  <rect width="960" height="540" fill="url(#grid)"/>
  <g transform="translate(180 88)">
    <rect x="0" y="0" width="600" height="360" rx="34" fill="#fffaf2" stroke="#1f1b16" stroke-width="5"/>
    <g transform="translate(76 62)" fill="none" stroke="#1f1b16" stroke-width="5">
      <path d="M0 40c60-48 116 48 176 0s116 48 176 0"/>
      <path d="M0 118c60-48 116 48 176 0s116 48 176 0" opacity=".55"/>
      <path d="M0 196c60-48 116 48 176 0s116 48 176 0" opacity=".3"/>
    </g>
    <g fill="#f9735b" stroke="#1f1b16" stroke-width="4">
      <circle cx="92" cy="102" r="22"/>
      <circle cx="266" cy="140" r="22" fill="#f5c542"/>
      <circle cx="440" cy="102" r="22" fill="#7fb069"/>
      <circle cx="522" cy="258" r="22" fill="#8b5cf6"/>
    </g>
  </g>
</svg>
