<svg xmlns="http://www.w3.org/2000/svg" width="900" height="620" viewBox="0 0 900 620" role="img" aria-label="Canteen management dashboard illustration">
  <defs>
    <linearGradient id="bg" x1="0" y1="0" x2="1" y2="1"><stop offset="0" stop-color="#fff3df"/><stop offset="1" stop-color="#d7e2ca"/></linearGradient>
    <linearGradient id="panel" x1="0" y1="0" x2="1" y2="1"><stop offset="0" stop-color="#2c2a1f"/><stop offset="1" stop-color="#3d5f4d"/></linearGradient>
  </defs>
  <rect width="900" height="620" rx="54" fill="url(#bg)"/>
  <circle cx="772" cy="116" r="72" fill="#ff8b68" opacity=".2"/>
  <circle cx="126" cy="505" r="90" fill="#e7b84d" opacity=".24"/>
  <rect x="92" y="90" width="716" height="440" rx="36" fill="url(#panel)"/>
  <rect x="132" y="132" width="636" height="58" rx="18" fill="#fff5e7" opacity=".12"/>
  <circle cx="168" cy="161" r="10" fill="#ff8b68"/>
  <circle cx="198" cy="161" r="10" fill="#e7b84d"/>
  <circle cx="228" cy="161" r="10" fill="#9be54d"/>
  <rect x="132" y="230" width="220" height="230" rx="26" fill="#fff5e7" opacity=".12"/>
  <rect x="386" y="230" width="160" height="86" rx="22" fill="#fff5e7" opacity=".16"/>
  <rect x="574" y="230" width="160" height="86" rx="22" fill="#fff5e7" opacity=".16"/>
  <rect x="386" y="344" width="348" height="116" rx="24" fill="#fff5e7" opacity=".12"/>
  <path d="M186 344h112M186 384h86M186 424h128" stroke="#ffdf82" stroke-width="17" stroke-linecap="round"/>
  <path d="M424 274h80M612 274h70M426 390h250" stroke="#fff5e7" stroke-width="14" stroke-linecap="round" opacity=".72"/>
  <path d="M426 424h170" stroke="#fff5e7" stroke-width="14" stroke-linecap="round" opacity=".45"/>
  <text x="132" y="72" fill="#231f18" font-size="32" font-family="Arial, sans-serif" font-weight="700">canteen workflow</text>
</svg>
